<svg xmlns="http://www.w3.org/2000/svg" id="svg4694" width="32" height="32" viewBox="0 0 16 16"><style id="style4696">.icon-canvas-transparent{opacity:0;fill:#f6f6f6}</style><g id="g4707" transform="translate(-246 -5.333) scale(1.33333)"><path id="path4534" fill="#f6f6f6" d="M185 4h11v12h-11z"/><path id="path4536" fill="#424242" d="M194 13V6h-7v7h-1V5h9v8h-1zm-7 2h-1v-1h1v1zm2-1h-1v1h1v-1zm2 0h-1v1h1v-1zm2 1h-1v-1h1v1zm2-1h-1v1h1v-1z"/><path id="path4538" fill="#f0eff1" d="M187 13V6h7v7h-7z"/></g><path id="canvas" d="M16 16H0V0h16v16z" class="icon-canvas-transparent"/></svg>